<mxfile host="65bd71144e" modified="2021-03-18T13:38:17.631Z" agent="5.0 (X11; Linux x86_64) AppleWebKit/537.36 (KHTML, like Gecko) Code/1.54.1 Chrome/87.0.4280.141 Electron/11.3.0 Safari/537.36" etag="Hgae7rUw6nTRiYZdKW1X" version="14.2.4" type="embed" pages="2">
    <diagram id="6hGFLwfOUW9BJ-s0fimq" name="System Architecture">
        <mxGraphModel dx="2121" dy="1688" grid="1" gridSize="10" guides="1" tooltips="1" connect="1" arrows="1" fold="1" page="1" pageScale="1" pageWidth="827" pageHeight="1169" math="0" shadow="0">
            <root>
                <mxCell id="0"/>
                <mxCell id="1" parent="0"/>
                <mxCell id="84" value="" style="rounded=0;whiteSpace=wrap;html=1;fillColor=#f5f5f5;strokeColor=#666666;fontColor=#333333;" parent="1" vertex="1">
                    <mxGeometry x="-620" y="-90" width="1380" height="880" as="geometry"/>
                </mxCell>
                <mxCell id="33" value="" style="group;fillColor=#b1ddf0;strokeColor=#10739e;" parent="1" vertex="1" connectable="0">
                    <mxGeometry x="98.04" y="-20" width="400" height="300" as="geometry"/>
                </mxCell>
                <mxCell id="32" value="" style="group;fillColor=#b1ddf0;strokeColor=#10739e;" parent="33" vertex="1" connectable="0">
                    <mxGeometry width="400" height="300" as="geometry"/>
                </mxCell>
                <mxCell id="6" value="" style="rounded=0;whiteSpace=wrap;html=1;fillColor=#b1ddf0;strokeColor=#10739e;" parent="32" vertex="1">
                    <mxGeometry y="-20" width="400" height="320" as="geometry"/>
                </mxCell>
                <mxCell id="7" value="&lt;font size=&quot;1&quot;&gt;&lt;b style=&quot;font-size: 22px&quot;&gt;UI-Design-Client&lt;/b&gt;&lt;/font&gt;" style="text;html=1;strokeColor=none;fillColor=none;align=center;verticalAlign=middle;whiteSpace=wrap;rounded=0;" parent="32" vertex="1">
                    <mxGeometry x="128.75" y="-10" width="182.5" height="20" as="geometry"/>
                </mxCell>
                <mxCell id="8" value="&lt;font style=&quot;font-size: 14px&quot;&gt;&lt;b&gt;Wizard&lt;/b&gt;&lt;/font&gt;" style="rounded=1;whiteSpace=wrap;html=1;" parent="32" vertex="1">
                    <mxGeometry x="30" y="50" width="80" height="40" as="geometry"/>
                </mxCell>
                <mxCell id="9" value="&lt;font style=&quot;font-size: 14px&quot;&gt;&lt;b&gt;Storage&lt;br&gt;(pdl,ndl)&lt;/b&gt;&lt;/font&gt;" style="rounded=1;whiteSpace=wrap;html=1;fillColor=#dae8fc;strokeColor=#6c8ebf;" parent="32" vertex="1">
                    <mxGeometry x="150" y="50" width="80" height="40" as="geometry"/>
                </mxCell>
                <mxCell id="10" value="&lt;span style=&quot;font-size: 14px&quot;&gt;&lt;b&gt;GraphStorage&lt;br&gt;(mxGraph vertex)&lt;br&gt;&lt;/b&gt;&lt;/span&gt;" style="rounded=1;whiteSpace=wrap;html=1;fillColor=#f8cecc;strokeColor=#b85450;" parent="32" vertex="1">
                    <mxGeometry x="130" y="180" width="120" height="40" as="geometry"/>
                </mxCell>
                <mxCell id="12" value="" style="endArrow=classic;startArrow=classic;html=1;exitX=0.5;exitY=0;exitDx=0;exitDy=0;entryX=0.5;entryY=1;entryDx=0;entryDy=0;" parent="32" source="10" target="9" edge="1">
                    <mxGeometry width="50" height="50" relative="1" as="geometry">
                        <mxPoint x="240" y="160" as="sourcePoint"/>
                        <mxPoint x="290" y="110" as="targetPoint"/>
                    </mxGeometry>
                </mxCell>
                <mxCell id="13" value="&lt;b style=&quot;font-size: 14px&quot;&gt;Style Editor&lt;/b&gt;" style="rounded=1;whiteSpace=wrap;html=1;" parent="32" vertex="1">
                    <mxGeometry x="297.5" y="180" width="90" height="40" as="geometry"/>
                </mxCell>
                <mxCell id="15" value="" style="endArrow=classic;html=1;exitX=1;exitY=0.5;exitDx=0;exitDy=0;entryX=0;entryY=0.5;entryDx=0;entryDy=0;" parent="32" source="8" target="9" edge="1">
                    <mxGeometry width="50" height="50" relative="1" as="geometry">
                        <mxPoint x="240" y="160" as="sourcePoint"/>
                        <mxPoint x="290" y="110" as="targetPoint"/>
                    </mxGeometry>
                </mxCell>
                <mxCell id="17" value="" style="endArrow=classic;html=1;exitX=0;exitY=0.5;exitDx=0;exitDy=0;entryX=1;entryY=0.5;entryDx=0;entryDy=0;" parent="32" source="13" target="10" edge="1">
                    <mxGeometry width="50" height="50" relative="1" as="geometry">
                        <mxPoint x="240" y="160" as="sourcePoint"/>
                        <mxPoint x="290" y="110" as="targetPoint"/>
                    </mxGeometry>
                </mxCell>
                <mxCell id="18" value="&lt;span style=&quot;font-size: 14px&quot;&gt;&lt;b&gt;Navigation&lt;/b&gt;&lt;/span&gt;" style="rounded=1;whiteSpace=wrap;html=1;" parent="32" vertex="1">
                    <mxGeometry x="260" y="50" width="90" height="40" as="geometry"/>
                </mxCell>
                <mxCell id="19" value="" style="endArrow=classic;html=1;exitX=0;exitY=0.5;exitDx=0;exitDy=0;entryX=1;entryY=0.5;entryDx=0;entryDy=0;" parent="32" source="18" target="9" edge="1">
                    <mxGeometry width="50" height="50" relative="1" as="geometry">
                        <mxPoint x="240" y="160" as="sourcePoint"/>
                        <mxPoint x="290" y="110" as="targetPoint"/>
                    </mxGeometry>
                </mxCell>
                <mxCell id="21" value="&lt;font style=&quot;font-size: 14px&quot;&gt;&lt;b&gt;Service Component Mapping&lt;/b&gt;&lt;/font&gt;" style="rounded=1;whiteSpace=wrap;html=1;" parent="32" vertex="1">
                    <mxGeometry x="260" y="100" width="100" height="50" as="geometry"/>
                </mxCell>
                <mxCell id="22" value="" style="endArrow=classic;html=1;exitX=0;exitY=0.5;exitDx=0;exitDy=0;entryX=1;entryY=0.5;entryDx=0;entryDy=0;" parent="32" source="21" target="9" edge="1">
                    <mxGeometry width="50" height="50" relative="1" as="geometry">
                        <mxPoint x="240" y="160" as="sourcePoint"/>
                        <mxPoint x="290" y="110" as="targetPoint"/>
                        <Array as="points">
                            <mxPoint x="250" y="125"/>
                            <mxPoint x="250" y="70"/>
                        </Array>
                    </mxGeometry>
                </mxCell>
                <mxCell id="23" value="&lt;b style=&quot;font-size: 14px&quot;&gt;Code Editor&lt;/b&gt;" style="rounded=1;whiteSpace=wrap;html=1;" parent="32" vertex="1">
                    <mxGeometry x="30" y="110" width="90" height="40" as="geometry"/>
                </mxCell>
                <mxCell id="24" value="&lt;b style=&quot;font-size: 14px&quot;&gt;Graph Editor&lt;/b&gt;" style="rounded=1;whiteSpace=wrap;html=1;" parent="32" vertex="1">
                    <mxGeometry x="20" y="180" width="90" height="40" as="geometry"/>
                </mxCell>
                <mxCell id="25" value="" style="endArrow=classic;html=1;exitX=1;exitY=0.5;exitDx=0;exitDy=0;entryX=0;entryY=0.5;entryDx=0;entryDy=0;" parent="32" source="23" target="9" edge="1">
                    <mxGeometry width="50" height="50" relative="1" as="geometry">
                        <mxPoint x="240" y="160" as="sourcePoint"/>
                        <mxPoint x="290" y="110" as="targetPoint"/>
                        <Array as="points">
                            <mxPoint x="130" y="130"/>
                            <mxPoint x="130" y="70"/>
                        </Array>
                    </mxGeometry>
                </mxCell>
                <mxCell id="26" value="" style="endArrow=classic;html=1;exitX=1;exitY=0.5;exitDx=0;exitDy=0;entryX=0;entryY=0.5;entryDx=0;entryDy=0;" parent="32" source="24" target="10" edge="1">
                    <mxGeometry width="50" height="50" relative="1" as="geometry">
                        <mxPoint x="240" y="160" as="sourcePoint"/>
                        <mxPoint x="290" y="110" as="targetPoint"/>
                    </mxGeometry>
                </mxCell>
                <mxCell id="27" value="&lt;font style=&quot;font-size: 14px&quot;&gt;&lt;b&gt;Http Client Service&lt;/b&gt;&lt;/font&gt;" style="rounded=1;whiteSpace=wrap;html=1;" parent="32" vertex="1">
                    <mxGeometry x="125" y="250" width="130" height="30" as="geometry"/>
                </mxCell>
                <mxCell id="28" value="" style="endArrow=classic;html=1;exitX=0.5;exitY=0;exitDx=0;exitDy=0;entryX=0;entryY=0.5;entryDx=0;entryDy=0;" parent="32" source="9" target="27" edge="1">
                    <mxGeometry width="50" height="50" relative="1" as="geometry">
                        <mxPoint x="240" y="160" as="sourcePoint"/>
                        <mxPoint x="290" y="110" as="targetPoint"/>
                        <Array as="points">
                            <mxPoint x="190" y="30"/>
                            <mxPoint x="10" y="30"/>
                            <mxPoint x="10" y="265"/>
                        </Array>
                    </mxGeometry>
                </mxCell>
                <mxCell id="29" value="" style="endArrow=classic;html=1;exitX=0.5;exitY=1;exitDx=0;exitDy=0;entryX=0.5;entryY=0;entryDx=0;entryDy=0;" parent="32" source="10" target="27" edge="1">
                    <mxGeometry width="50" height="50" relative="1" as="geometry">
                        <mxPoint x="240" y="160" as="sourcePoint"/>
                        <mxPoint x="290" y="110" as="targetPoint"/>
                    </mxGeometry>
                </mxCell>
                <mxCell id="30" value="&lt;font style=&quot;font-size: 14px&quot;&gt;Data Binding&lt;/font&gt;" style="text;html=1;strokeColor=none;fillColor=none;align=center;verticalAlign=middle;whiteSpace=wrap;rounded=0;" parent="32" vertex="1">
                    <mxGeometry x="200" y="140" width="40" height="20" as="geometry"/>
                </mxCell>
                <mxCell id="61" value="" style="group;fillColor=#fad9d5;strokeColor=#ae4132;" parent="1" vertex="1" connectable="0">
                    <mxGeometry x="80" y="480" width="450" height="270" as="geometry"/>
                </mxCell>
                <mxCell id="34" value="" style="rounded=0;whiteSpace=wrap;html=1;fillColor=#fad9d5;strokeColor=#ae4132;" parent="61" vertex="1">
                    <mxGeometry width="450.00000000000006" height="270" as="geometry"/>
                </mxCell>
                <mxCell id="35" value="&lt;font size=&quot;1&quot;&gt;&lt;b style=&quot;font-size: 22px&quot;&gt;UI-Design-Server&lt;/b&gt;&lt;/font&gt;" style="text;html=1;strokeColor=none;fillColor=none;align=center;verticalAlign=middle;whiteSpace=wrap;rounded=0;" parent="61" vertex="1">
                    <mxGeometry x="124.2732558139535" y="10" width="201.45348837209303" height="20" as="geometry"/>
                </mxCell>
                <mxCell id="37" value="&lt;b&gt;&lt;font style=&quot;font-size: 16px&quot;&gt;Controller&lt;/font&gt;&lt;/b&gt;" style="rounded=1;whiteSpace=wrap;html=1;" parent="61" vertex="1">
                    <mxGeometry x="104.65116279069768" y="65" width="83.72093023255815" height="40" as="geometry"/>
                </mxCell>
                <mxCell id="40" value="&lt;font style=&quot;font-size: 14px&quot;&gt;&lt;b&gt;UI Component Strategy&lt;/b&gt;&lt;/font&gt;" style="rounded=1;whiteSpace=wrap;html=1;" parent="61" vertex="1">
                    <mxGeometry x="288.0262790697675" y="200" width="125.58139534883722" height="60" as="geometry"/>
                </mxCell>
                <mxCell id="49" value="" style="group" parent="61" vertex="1" connectable="0">
                    <mxGeometry x="261.63" y="40" width="178.37" height="120" as="geometry"/>
                </mxCell>
                <mxCell id="41" value="" style="rounded=1;whiteSpace=wrap;html=1;" parent="49" vertex="1">
                    <mxGeometry width="178.37" height="120" as="geometry"/>
                </mxCell>
                <mxCell id="42" value="&lt;b&gt;Template Generator&lt;br&gt;(String)&lt;br&gt;&lt;/b&gt;" style="text;html=1;strokeColor=none;fillColor=none;align=center;verticalAlign=middle;whiteSpace=wrap;rounded=0;" parent="49" vertex="1">
                    <mxGeometry x="20" y="11.11" width="122.7" height="22.22" as="geometry"/>
                </mxCell>
                <mxCell id="43" value="scss&lt;br&gt;template" style="rounded=0;whiteSpace=wrap;html=1;" parent="49" vertex="1">
                    <mxGeometry x="61.75" y="80" width="54.88" height="33.33" as="geometry"/>
                </mxCell>
                <mxCell id="44" value="typescript&lt;br&gt;template" style="rounded=0;whiteSpace=wrap;html=1;" parent="49" vertex="1">
                    <mxGeometry x="13.72" y="38.89" width="65.86" height="31.11" as="geometry"/>
                </mxCell>
                <mxCell id="47" value="html&lt;br&gt;template" style="rounded=0;whiteSpace=wrap;html=1;" parent="49" vertex="1">
                    <mxGeometry x="101.53" y="38.89" width="54.88" height="31.11" as="geometry"/>
                </mxCell>
                <mxCell id="50" value="" style="endArrow=classic;html=1;dashed=1;exitX=0.5;exitY=1;exitDx=0;exitDy=0;entryX=0.5;entryY=0;entryDx=0;entryDy=0;" parent="61" source="41" target="40" edge="1">
                    <mxGeometry width="50" height="50" relative="1" as="geometry">
                        <mxPoint x="356.8604651162791" y="130" as="sourcePoint"/>
                        <mxPoint x="356.8604651162791" y="200" as="targetPoint"/>
                    </mxGeometry>
                </mxCell>
                <mxCell id="58" value="" style="group" parent="61" vertex="1" connectable="0">
                    <mxGeometry x="10.465116279069768" y="140" width="251.16279069767444" height="120" as="geometry"/>
                </mxCell>
                <mxCell id="36" value="" style="rounded=1;whiteSpace=wrap;html=1;" parent="58" vertex="1">
                    <mxGeometry width="251.16279069767444" height="120" as="geometry"/>
                </mxCell>
                <mxCell id="38" value="&lt;font size=&quot;1&quot;&gt;&lt;b style=&quot;font-size: 18px&quot;&gt;Dao&lt;/b&gt;&lt;/font&gt;" style="text;html=1;strokeColor=none;fillColor=none;align=center;verticalAlign=middle;whiteSpace=wrap;rounded=0;" parent="58" vertex="1">
                    <mxGeometry x="104.65116279069768" width="41.86046511627907" height="20" as="geometry"/>
                </mxCell>
                <mxCell id="53" value="ServiceComponent&lt;br&gt;Dao" style="rounded=0;whiteSpace=wrap;html=1;" parent="58" vertex="1">
                    <mxGeometry x="10.465116279069768" y="30" width="125.58139534883722" height="35" as="geometry"/>
                </mxCell>
                <mxCell id="55" value="Template&lt;br&gt;Dao" style="rounded=0;whiteSpace=wrap;html=1;" parent="58" vertex="1">
                    <mxGeometry x="143.89534883720933" y="30" width="86.33720930232559" height="35" as="geometry"/>
                </mxCell>
                <mxCell id="56" value="Page&lt;br&gt;Dao (pdl)" style="rounded=0;whiteSpace=wrap;html=1;" parent="58" vertex="1">
                    <mxGeometry x="136.046511627907" y="80" width="73.25581395348837" height="30" as="geometry"/>
                </mxCell>
                <mxCell id="57" value="Navigation&lt;br&gt;Dao (ndl)" style="rounded=0;whiteSpace=wrap;html=1;" parent="58" vertex="1">
                    <mxGeometry x="36.627906976744185" y="80" width="73.25581395348837" height="30" as="geometry"/>
                </mxCell>
                <mxCell id="59" value="" style="endArrow=classic;html=1;exitX=0.5;exitY=1;exitDx=0;exitDy=0;entryX=0.75;entryY=0;entryDx=0;entryDy=0;" parent="61" source="37" target="38" edge="1">
                    <mxGeometry width="50" height="50" relative="1" as="geometry">
                        <mxPoint x="240.69767441860466" y="60" as="sourcePoint"/>
                        <mxPoint x="293.0232558139535" y="10" as="targetPoint"/>
                    </mxGeometry>
                </mxCell>
                <mxCell id="60" value="" style="endArrow=classic;html=1;exitX=1;exitY=0.5;exitDx=0;exitDy=0;entryX=0;entryY=0.5;entryDx=0;entryDy=0;" parent="61" source="37" target="41" edge="1">
                    <mxGeometry width="50" height="50" relative="1" as="geometry">
                        <mxPoint x="240.69767441860466" y="60" as="sourcePoint"/>
                        <mxPoint x="293.0232558139535" y="10" as="targetPoint"/>
                        <Array as="points">
                            <mxPoint x="230" y="85"/>
                            <mxPoint x="230" y="100"/>
                        </Array>
                    </mxGeometry>
                </mxCell>
                <mxCell id="82" value="" style="endArrow=classic;html=1;exitX=0;exitY=0.5;exitDx=0;exitDy=0;entryX=1;entryY=0.5;entryDx=0;entryDy=0;dashed=1;" parent="61" source="40" target="55" edge="1">
                    <mxGeometry width="50" height="50" relative="1" as="geometry">
                        <mxPoint x="80" y="-10" as="sourcePoint"/>
                        <mxPoint x="130" y="-60" as="targetPoint"/>
                        <Array as="points">
                            <mxPoint x="270" y="210"/>
                        </Array>
                    </mxGeometry>
                </mxCell>
                <mxCell id="62" value="" style="endArrow=classic;html=1;exitX=0.5;exitY=1;exitDx=0;exitDy=0;entryX=0;entryY=0.5;entryDx=0;entryDy=0;startArrow=classic;startFill=1;fillColor=#f8cecc;strokeColor=#b85450;strokeWidth=4;" parent="1" source="27" target="37" edge="1">
                    <mxGeometry width="50" height="50" relative="1" as="geometry">
                        <mxPoint x="260" y="490" as="sourcePoint"/>
                        <mxPoint x="310" y="440" as="targetPoint"/>
                        <Array as="points">
                            <mxPoint x="290" y="440"/>
                            <mxPoint x="130" y="440"/>
                            <mxPoint x="130" y="565"/>
                        </Array>
                    </mxGeometry>
                </mxCell>
                <mxCell id="63" value="&lt;font style=&quot;font-size: 20px&quot;&gt;&lt;b&gt;DB&lt;/b&gt;&lt;/font&gt;" style="shape=cylinder;whiteSpace=wrap;html=1;boundedLbl=1;backgroundOutline=1;" parent="1" vertex="1">
                    <mxGeometry x="-60" y="640" width="60" height="80" as="geometry"/>
                </mxCell>
                <mxCell id="64" value="" style="endArrow=classic;html=1;exitX=0;exitY=0.5;exitDx=0;exitDy=0;entryX=1;entryY=0.5;entryDx=0;entryDy=0;" parent="1" source="36" target="63" edge="1">
                    <mxGeometry width="50" height="50" relative="1" as="geometry">
                        <mxPoint x="320" y="530" as="sourcePoint"/>
                        <mxPoint x="370" y="480" as="targetPoint"/>
                    </mxGeometry>
                </mxCell>
                <mxCell id="72" value="&lt;font style=&quot;font-size: 18px&quot;&gt;&lt;b&gt;Angular Web App&lt;/b&gt;&lt;/font&gt;" style="rounded=0;whiteSpace=wrap;html=1;fillColor=#647687;strokeColor=#314354;fontColor=#ffffff;" parent="1" vertex="1">
                    <mxGeometry x="-380" y="340" width="160" height="80" as="geometry"/>
                </mxCell>
                <mxCell id="77" value="" style="group;fillColor=#f8cecc;strokeColor=#b85450;" parent="1" vertex="1" connectable="0">
                    <mxGeometry x="-460" y="510" width="320" height="200" as="geometry"/>
                </mxCell>
                <mxCell id="65" value="" style="rounded=0;whiteSpace=wrap;html=1;fillColor=#fad7ac;strokeColor=#b46504;" parent="77" vertex="1">
                    <mxGeometry width="320" height="200" as="geometry"/>
                </mxCell>
                <mxCell id="66" value="&lt;font style=&quot;font-size: 22px&quot;&gt;&lt;b&gt;UI-Composite-Engine&lt;/b&gt;&lt;/font&gt;" style="text;html=1;strokeColor=none;fillColor=none;align=center;verticalAlign=middle;whiteSpace=wrap;rounded=0;" parent="77" vertex="1">
                    <mxGeometry x="45" y="10" width="230" height="20" as="geometry"/>
                </mxCell>
                <mxCell id="67" value="&lt;font style=&quot;font-size: 14px&quot;&gt;&lt;b&gt;Metadata&lt;br&gt;Generator (dependency)&lt;/b&gt;&lt;/font&gt;" style="rounded=1;whiteSpace=wrap;html=1;" parent="77" vertex="1">
                    <mxGeometry x="170" y="40" width="120" height="60" as="geometry"/>
                </mxCell>
                <mxCell id="68" value="&lt;font style=&quot;font-size: 14px&quot;&gt;&lt;b&gt;Dao&lt;/b&gt;&lt;/font&gt;" style="rounded=1;whiteSpace=wrap;html=1;" parent="77" vertex="1">
                    <mxGeometry x="210" y="150" width="90" height="40" as="geometry"/>
                </mxCell>
                <mxCell id="71" value="&lt;font&gt;&lt;b&gt;&lt;font style=&quot;font-size: 12px&quot;&gt;Renderer&lt;br&gt;(Using FreeMarker)&lt;/font&gt;&lt;br&gt;&lt;/b&gt;&lt;/font&gt;" style="rounded=1;whiteSpace=wrap;html=1;" parent="77" vertex="1">
                    <mxGeometry x="20" y="40" width="120" height="60" as="geometry"/>
                </mxCell>
                <mxCell id="75" value="" style="endArrow=classic;html=1;exitX=0.5;exitY=1;exitDx=0;exitDy=0;entryX=0.5;entryY=0;entryDx=0;entryDy=0;dashed=1;" parent="77" source="71" target="68" edge="1">
                    <mxGeometry width="50" height="50" relative="1" as="geometry">
                        <mxPoint x="250" y="40" as="sourcePoint"/>
                        <mxPoint x="300" y="-10" as="targetPoint"/>
                        <Array as="points">
                            <mxPoint x="80" y="130"/>
                            <mxPoint x="255" y="130"/>
                        </Array>
                    </mxGeometry>
                </mxCell>
                <mxCell id="76" value="" style="endArrow=classic;html=1;exitX=0.5;exitY=1;exitDx=0;exitDy=0;entryX=0.5;entryY=0;entryDx=0;entryDy=0;dashed=1;" parent="77" source="67" target="68" edge="1">
                    <mxGeometry width="50" height="50" relative="1" as="geometry">
                        <mxPoint x="250" y="40" as="sourcePoint"/>
                        <mxPoint x="300" y="-10" as="targetPoint"/>
                        <Array as="points">
                            <mxPoint x="230" y="130"/>
                            <mxPoint x="255" y="130"/>
                        </Array>
                    </mxGeometry>
                </mxCell>
                <mxCell id="70" value="" style="endArrow=classic;html=1;exitX=0;exitY=0.5;exitDx=0;exitDy=0;entryX=1;entryY=0.5;entryDx=0;entryDy=0;" parent="1" source="63" target="68" edge="1">
                    <mxGeometry width="50" height="50" relative="1" as="geometry">
                        <mxPoint x="-190" y="490" as="sourcePoint"/>
                        <mxPoint x="-140" y="440" as="targetPoint"/>
                        <Array as="points"/>
                    </mxGeometry>
                </mxCell>
                <mxCell id="73" value="" style="endArrow=classic;html=1;exitX=0;exitY=0.5;exitDx=0;exitDy=0;entryX=0;entryY=0.5;entryDx=0;entryDy=0;" parent="1" source="71" target="72" edge="1">
                    <mxGeometry width="50" height="50" relative="1" as="geometry">
                        <mxPoint x="-120" y="450" as="sourcePoint"/>
                        <mxPoint x="-70" y="400" as="targetPoint"/>
                        <Array as="points">
                            <mxPoint x="-550" y="580"/>
                            <mxPoint x="-550" y="510"/>
                            <mxPoint x="-550" y="380"/>
                        </Array>
                    </mxGeometry>
                </mxCell>
                <mxCell id="74" value="" style="endArrow=classic;html=1;exitX=1;exitY=0.5;exitDx=0;exitDy=0;entryX=1;entryY=0.5;entryDx=0;entryDy=0;" parent="1" source="67" target="72" edge="1">
                    <mxGeometry width="50" height="50" relative="1" as="geometry">
                        <mxPoint x="-130" y="450" as="sourcePoint"/>
                        <mxPoint x="-80" y="400" as="targetPoint"/>
                        <Array as="points">
                            <mxPoint x="-30" y="580"/>
                            <mxPoint x="-30" y="380"/>
                        </Array>
                    </mxGeometry>
                </mxCell>
                <mxCell id="78" value="&lt;font style=&quot;font-size: 18px&quot;&gt;Generate dependency for Angular webapp&lt;/font&gt;" style="text;html=1;strokeColor=none;fillColor=none;align=center;verticalAlign=middle;whiteSpace=wrap;rounded=0;" parent="1" vertex="1">
                    <mxGeometry x="-190" y="340" width="160" height="20" as="geometry"/>
                </mxCell>
                <mxCell id="80" style="edgeStyle=orthogonalEdgeStyle;rounded=0;orthogonalLoop=1;jettySize=auto;html=1;exitX=0.5;exitY=1;exitDx=0;exitDy=0;" parent="1" source="78" target="78" edge="1">
                    <mxGeometry relative="1" as="geometry"/>
                </mxCell>
                <mxCell id="81" value="&lt;font style=&quot;font-size: 18px&quot;&gt;Generate Angular web app&lt;br&gt;(ts,html,scss)&lt;/font&gt;" style="text;html=1;strokeColor=none;fillColor=none;align=center;verticalAlign=middle;whiteSpace=wrap;rounded=0;" parent="1" vertex="1">
                    <mxGeometry x="-580" y="340" width="160" height="20" as="geometry"/>
                </mxCell>
                <mxCell id="83" value="&lt;font style=&quot;font-size: 18px&quot;&gt;Send Internal Representation of Web page &lt;br&gt;(client draw on the graph editor)&lt;/font&gt;" style="text;html=1;strokeColor=none;fillColor=none;align=center;verticalAlign=middle;whiteSpace=wrap;rounded=0;" parent="1" vertex="1">
                    <mxGeometry x="280" y="370" width="420" height="20" as="geometry"/>
                </mxCell>
                <mxCell id="85" value="&lt;b&gt;&lt;font style=&quot;font-size: 36px&quot;&gt;UI Design System&lt;/font&gt;&lt;/b&gt;" style="text;html=1;strokeColor=none;fillColor=none;align=center;verticalAlign=middle;whiteSpace=wrap;rounded=0;" parent="1" vertex="1">
                    <mxGeometry x="-590" y="-60" width="310" height="20" as="geometry"/>
                </mxCell>
            </root>
        </mxGraphModel>
    </diagram>
    <diagram id="ur_pfEb5-ufn4do76HmH" name="PageUICDL Class Diagram">
        <mxGraphModel dx="2436" dy="827" grid="1" gridSize="10" guides="1" tooltips="1" connect="1" arrows="1" fold="1" page="1" pageScale="1" pageWidth="850" pageHeight="1100" math="0" shadow="0">
            <root>
                <mxCell id="A4yf_fh0j4ve3ehSTuui-0"/>
                <mxCell id="A4yf_fh0j4ve3ehSTuui-1" parent="A4yf_fh0j4ve3ehSTuui-0"/>
                <mxCell id="14pyiHDCrdK1a7-ECYkf-69" value="" style="rounded=0;whiteSpace=wrap;html=1;fontColor=none;align=left;" parent="A4yf_fh0j4ve3ehSTuui-1" vertex="1">
                    <mxGeometry x="-220" y="220" width="1300" height="800" as="geometry"/>
                </mxCell>
                <mxCell id="A4yf_fh0j4ve3ehSTuui-2" value="PageUICDL" style="swimlane;fontStyle=1;childLayout=stackLayout;horizontal=1;startSize=26;fillColor=none;horizontalStack=0;resizeParent=1;resizeParentMax=0;resizeLast=0;collapsible=1;marginBottom=0;" parent="A4yf_fh0j4ve3ehSTuui-1" vertex="1">
                    <mxGeometry x="410" y="230" width="170" height="260" as="geometry"/>
                </mxCell>
                <mxCell id="A4yf_fh0j4ve3ehSTuui-3" value="- id: string" style="text;strokeColor=none;fillColor=none;align=left;verticalAlign=top;spacingLeft=4;spacingRight=4;overflow=hidden;rotatable=0;points=[[0,0.5],[1,0.5]];portConstraint=eastwest;" parent="A4yf_fh0j4ve3ehSTuui-2" vertex="1">
                    <mxGeometry y="26" width="170" height="26" as="geometry"/>
                </mxCell>
                <mxCell id="A4yf_fh0j4ve3ehSTuui-4" value="- selector: string" style="text;strokeColor=none;fillColor=none;align=left;verticalAlign=top;spacingLeft=4;spacingRight=4;overflow=hidden;rotatable=0;points=[[0,0.5],[1,0.5]];portConstraint=eastwest;" parent="A4yf_fh0j4ve3ehSTuui-2" vertex="1">
                    <mxGeometry y="52" width="170" height="26" as="geometry"/>
                </mxCell>
                <mxCell id="A4yf_fh0j4ve3ehSTuui-5" value="- name: string" style="text;strokeColor=none;fillColor=none;align=left;verticalAlign=top;spacingLeft=4;spacingRight=4;overflow=hidden;rotatable=0;points=[[0,0.5],[1,0.5]];portConstraint=eastwest;" parent="A4yf_fh0j4ve3ehSTuui-2" vertex="1">
                    <mxGeometry y="78" width="170" height="26" as="geometry"/>
                </mxCell>
                <mxCell id="14pyiHDCrdK1a7-ECYkf-0" value="- isMain: boolean" style="text;strokeColor=none;fillColor=none;align=left;verticalAlign=top;spacingLeft=4;spacingRight=4;overflow=hidden;rotatable=0;points=[[0,0.5],[1,0.5]];portConstraint=eastwest;" parent="A4yf_fh0j4ve3ehSTuui-2" vertex="1">
                    <mxGeometry y="104" width="170" height="26" as="geometry"/>
                </mxCell>
                <mxCell id="14pyiHDCrdK1a7-ECYkf-1" value="- body: LayoutComponent" style="text;strokeColor=none;fillColor=none;align=left;verticalAlign=top;spacingLeft=4;spacingRight=4;overflow=hidden;rotatable=0;points=[[0,0.5],[1,0.5]];portConstraint=eastwest;" parent="A4yf_fh0j4ve3ehSTuui-2" vertex="1">
                    <mxGeometry y="130" width="170" height="26" as="geometry"/>
                </mxCell>
                <mxCell id="14pyiHDCrdK1a7-ECYkf-2" value="- header: LayoutComponent" style="text;strokeColor=none;fillColor=none;align=left;verticalAlign=top;spacingLeft=4;spacingRight=4;overflow=hidden;rotatable=0;points=[[0,0.5],[1,0.5]];portConstraint=eastwest;" parent="A4yf_fh0j4ve3ehSTuui-2" vertex="1">
                    <mxGeometry y="156" width="170" height="26" as="geometry"/>
                </mxCell>
                <mxCell id="14pyiHDCrdK1a7-ECYkf-3" value="- sidebar: LayoutComponent" style="text;strokeColor=none;fillColor=none;align=left;verticalAlign=top;spacingLeft=4;spacingRight=4;overflow=hidden;rotatable=0;points=[[0,0.5],[1,0.5]];portConstraint=eastwest;" parent="A4yf_fh0j4ve3ehSTuui-2" vertex="1">
                    <mxGeometry y="182" width="170" height="26" as="geometry"/>
                </mxCell>
                <mxCell id="14pyiHDCrdK1a7-ECYkf-4" value="- footer: LayoutComponent" style="text;strokeColor=none;fillColor=none;align=left;verticalAlign=top;spacingLeft=4;spacingRight=4;overflow=hidden;rotatable=0;points=[[0,0.5],[1,0.5]];portConstraint=eastwest;" parent="A4yf_fh0j4ve3ehSTuui-2" vertex="1">
                    <mxGeometry y="208" width="170" height="26" as="geometry"/>
                </mxCell>
                <mxCell id="14pyiHDCrdK1a7-ECYkf-5" value="- asidebar: LayoutComponent" style="text;strokeColor=none;fillColor=none;align=left;verticalAlign=top;spacingLeft=4;spacingRight=4;overflow=hidden;rotatable=0;points=[[0,0.5],[1,0.5]];portConstraint=eastwest;" parent="A4yf_fh0j4ve3ehSTuui-2" vertex="1">
                    <mxGeometry y="234" width="170" height="26" as="geometry"/>
                </mxCell>
                <mxCell id="14pyiHDCrdK1a7-ECYkf-7" value="UIComponent" style="swimlane;fontStyle=1;childLayout=stackLayout;horizontal=1;startSize=26;fillColor=none;horizontalStack=0;resizeParent=1;resizeParentMax=0;resizeLast=0;collapsible=1;marginBottom=0;" parent="A4yf_fh0j4ve3ehSTuui-1" vertex="1">
                    <mxGeometry x="170" y="350" width="140" height="234" as="geometry"/>
                </mxCell>
                <mxCell id="14pyiHDCrdK1a7-ECYkf-8" value="- id: string" style="text;strokeColor=none;fillColor=none;align=left;verticalAlign=top;spacingLeft=4;spacingRight=4;overflow=hidden;rotatable=0;points=[[0,0.5],[1,0.5]];portConstraint=eastwest;" parent="14pyiHDCrdK1a7-ECYkf-7" vertex="1">
                    <mxGeometry y="26" width="140" height="26" as="geometry"/>
                </mxCell>
                <mxCell id="14pyiHDCrdK1a7-ECYkf-9" value="- selector: string" style="text;strokeColor=none;fillColor=none;align=left;verticalAlign=top;spacingLeft=4;spacingRight=4;overflow=hidden;rotatable=0;points=[[0,0.5],[1,0.5]];portConstraint=eastwest;" parent="14pyiHDCrdK1a7-ECYkf-7" vertex="1">
                    <mxGeometry y="52" width="140" height="26" as="geometry"/>
                </mxCell>
                <mxCell id="14pyiHDCrdK1a7-ECYkf-10" value="- category: string" style="text;strokeColor=#6c8ebf;fillColor=#dae8fc;align=left;verticalAlign=top;spacingLeft=4;spacingRight=4;overflow=hidden;rotatable=0;points=[[0,0.5],[1,0.5]];portConstraint=eastwest;" parent="14pyiHDCrdK1a7-ECYkf-7" vertex="1">
                    <mxGeometry y="78" width="140" height="26" as="geometry"/>
                </mxCell>
                <mxCell id="14pyiHDCrdK1a7-ECYkf-22" value="- type: string" style="text;strokeColor=#6c8ebf;fillColor=#dae8fc;align=left;verticalAlign=top;spacingLeft=4;spacingRight=4;overflow=hidden;rotatable=0;points=[[0,0.5],[1,0.5]];portConstraint=eastwest;" parent="14pyiHDCrdK1a7-ECYkf-7" vertex="1">
                    <mxGeometry y="104" width="140" height="26" as="geometry"/>
                </mxCell>
                <mxCell id="14pyiHDCrdK1a7-ECYkf-23" value="- name: string" style="text;strokeColor=none;fillColor=none;align=left;verticalAlign=top;spacingLeft=4;spacingRight=4;overflow=hidden;rotatable=0;points=[[0,0.5],[1,0.5]];portConstraint=eastwest;" parent="14pyiHDCrdK1a7-ECYkf-7" vertex="1">
                    <mxGeometry y="130" width="140" height="26" as="geometry"/>
                </mxCell>
                <mxCell id="14pyiHDCrdK1a7-ECYkf-20" value="- style: object" style="text;strokeColor=none;fillColor=none;align=left;verticalAlign=top;spacingLeft=4;spacingRight=4;overflow=hidden;rotatable=0;points=[[0,0.5],[1,0.5]];portConstraint=eastwest;" parent="14pyiHDCrdK1a7-ECYkf-7" vertex="1">
                    <mxGeometry y="156" width="140" height="26" as="geometry"/>
                </mxCell>
                <mxCell id="14pyiHDCrdK1a7-ECYkf-21" value="- geometry: object" style="text;strokeColor=none;fillColor=none;align=left;verticalAlign=top;spacingLeft=4;spacingRight=4;overflow=hidden;rotatable=0;points=[[0,0.5],[1,0.5]];portConstraint=eastwest;" parent="14pyiHDCrdK1a7-ECYkf-7" vertex="1">
                    <mxGeometry y="182" width="140" height="26" as="geometry"/>
                </mxCell>
                <mxCell id="14pyiHDCrdK1a7-ECYkf-24" value="- properties: object" style="text;strokeColor=none;fillColor=none;align=left;verticalAlign=top;spacingLeft=4;spacingRight=4;overflow=hidden;rotatable=0;points=[[0,0.5],[1,0.5]];portConstraint=eastwest;" parent="14pyiHDCrdK1a7-ECYkf-7" vertex="1">
                    <mxGeometry y="208" width="140" height="26" as="geometry"/>
                </mxCell>
                <mxCell id="14pyiHDCrdK1a7-ECYkf-11" value="CompositeComponent" style="swimlane;fontStyle=1;childLayout=stackLayout;horizontal=1;startSize=26;fillColor=none;horizontalStack=0;resizeParent=1;resizeParentMax=0;resizeLast=0;collapsible=1;marginBottom=0;" parent="A4yf_fh0j4ve3ehSTuui-1" vertex="1">
                    <mxGeometry x="340" y="640" width="270" height="78" as="geometry"/>
                </mxCell>
                <mxCell id="14pyiHDCrdK1a7-ECYkf-12" value="+ serviceComponent: ServiceComponentModel" style="text;strokeColor=none;fillColor=none;align=left;verticalAlign=top;spacingLeft=4;spacingRight=4;overflow=hidden;rotatable=0;points=[[0,0.5],[1,0.5]];portConstraint=eastwest;" parent="14pyiHDCrdK1a7-ECYkf-11" vertex="1">
                    <mxGeometry y="26" width="270" height="26" as="geometry"/>
                </mxCell>
                <mxCell id="14pyiHDCrdK1a7-ECYkf-13" value="+ componentList: UIComponent[]" style="text;strokeColor=#6c8ebf;fillColor=#dae8fc;align=left;verticalAlign=top;spacingLeft=4;spacingRight=4;overflow=hidden;rotatable=0;points=[[0,0.5],[1,0.5]];portConstraint=eastwest;" parent="14pyiHDCrdK1a7-ECYkf-11" vertex="1">
                    <mxGeometry y="52" width="270" height="26" as="geometry"/>
                </mxCell>
                <mxCell id="14pyiHDCrdK1a7-ECYkf-15" value="BasicComponent" style="swimlane;fontStyle=1;childLayout=stackLayout;horizontal=1;startSize=26;fillColor=none;horizontalStack=0;resizeParent=1;resizeParentMax=0;resizeLast=0;collapsible=1;marginBottom=0;" parent="A4yf_fh0j4ve3ehSTuui-1" vertex="1">
                    <mxGeometry x="-10" y="640" width="210" height="50" as="geometry"/>
                </mxCell>
                <mxCell id="14pyiHDCrdK1a7-ECYkf-16" value="+ serviceComponent: ArgumentModel" style="text;strokeColor=none;fillColor=none;align=left;verticalAlign=top;spacingLeft=4;spacingRight=4;overflow=hidden;rotatable=0;points=[[0,0.5],[1,0.5]];portConstraint=eastwest;" parent="14pyiHDCrdK1a7-ECYkf-15" vertex="1">
                    <mxGeometry y="26" width="210" height="24" as="geometry"/>
                </mxCell>
                <mxCell id="14pyiHDCrdK1a7-ECYkf-19" value="" style="endArrow=diamondThin;endFill=1;endSize=24;html=1;entryX=1;entryY=0.5;entryDx=0;entryDy=0;exitX=1;exitY=0.5;exitDx=0;exitDy=0;" parent="A4yf_fh0j4ve3ehSTuui-1" source="14pyiHDCrdK1a7-ECYkf-24" target="14pyiHDCrdK1a7-ECYkf-13" edge="1">
                    <mxGeometry width="160" relative="1" as="geometry">
                        <mxPoint x="340" y="380" as="sourcePoint"/>
                        <mxPoint x="500" y="380" as="targetPoint"/>
                        <Array as="points">
                            <mxPoint x="410" y="571"/>
                            <mxPoint x="490" y="571"/>
                            <mxPoint x="680" y="571"/>
                            <mxPoint x="680" y="610"/>
                            <mxPoint x="680" y="705"/>
                        </Array>
                    </mxGeometry>
                </mxCell>
                <mxCell id="14pyiHDCrdK1a7-ECYkf-25" value="Extends" style="endArrow=block;endSize=16;endFill=0;html=1;exitX=0.5;exitY=0;exitDx=0;exitDy=0;noLabel=1;fontColor=none;" parent="A4yf_fh0j4ve3ehSTuui-1" source="14pyiHDCrdK1a7-ECYkf-15" edge="1">
                    <mxGeometry width="160" relative="1" as="geometry">
                        <mxPoint x="340" y="510" as="sourcePoint"/>
                        <mxPoint x="240" y="584" as="targetPoint"/>
                        <Array as="points">
                            <mxPoint x="95" y="620"/>
                            <mxPoint x="240" y="620"/>
                        </Array>
                    </mxGeometry>
                </mxCell>
                <mxCell id="14pyiHDCrdK1a7-ECYkf-26" value="Extends" style="endArrow=block;endSize=16;endFill=0;html=1;exitX=0.5;exitY=0;exitDx=0;exitDy=0;noLabel=1;fontColor=none;" parent="A4yf_fh0j4ve3ehSTuui-1" source="14pyiHDCrdK1a7-ECYkf-11" target="14pyiHDCrdK1a7-ECYkf-24" edge="1">
                    <mxGeometry width="160" relative="1" as="geometry">
                        <mxPoint x="105" y="650" as="sourcePoint"/>
                        <mxPoint x="254.48000000000002" y="594.182" as="targetPoint"/>
                        <Array as="points">
                            <mxPoint x="475" y="620"/>
                            <mxPoint x="241" y="620"/>
                        </Array>
                    </mxGeometry>
                </mxCell>
                <mxCell id="14pyiHDCrdK1a7-ECYkf-27" value="LayoutComponent" style="swimlane;fontStyle=1;childLayout=stackLayout;horizontal=1;startSize=26;fillColor=none;horizontalStack=0;resizeParent=1;resizeParentMax=0;resizeLast=0;collapsible=1;marginBottom=0;fontColor=none;" parent="A4yf_fh0j4ve3ehSTuui-1" vertex="1">
                    <mxGeometry x="640" y="770" width="140" height="30" as="geometry"/>
                </mxCell>
                <mxCell id="14pyiHDCrdK1a7-ECYkf-31" value="FormComponent" style="swimlane;fontStyle=1;childLayout=stackLayout;horizontal=1;startSize=26;fillColor=none;horizontalStack=0;resizeParent=1;resizeParentMax=0;resizeLast=0;collapsible=1;marginBottom=0;fontColor=none;" parent="A4yf_fh0j4ve3ehSTuui-1" vertex="1">
                    <mxGeometry x="260" y="770" width="140" height="40" as="geometry"/>
                </mxCell>
                <mxCell id="14pyiHDCrdK1a7-ECYkf-35" value="CardComponent" style="swimlane;fontStyle=1;childLayout=stackLayout;horizontal=1;startSize=26;fillColor=none;horizontalStack=0;resizeParent=1;resizeParentMax=0;resizeLast=0;collapsible=1;marginBottom=0;fontColor=none;" parent="A4yf_fh0j4ve3ehSTuui-1" vertex="1">
                    <mxGeometry x="410" y="770" width="210" height="86" as="geometry"/>
                </mxCell>
                <mxCell id="14pyiHDCrdK1a7-ECYkf-36" value="- header: string" style="text;strokeColor=none;fillColor=none;align=left;verticalAlign=top;spacingLeft=4;spacingRight=4;overflow=hidden;rotatable=0;points=[[0,0.5],[1,0.5]];portConstraint=eastwest;" parent="14pyiHDCrdK1a7-ECYkf-35" vertex="1">
                    <mxGeometry y="26" width="210" height="26" as="geometry"/>
                </mxCell>
                <mxCell id="14pyiHDCrdK1a7-ECYkf-52" value="" style="line;strokeWidth=1;fillColor=none;align=left;verticalAlign=middle;spacingTop=-1;spacingLeft=3;spacingRight=3;rotatable=0;labelPosition=right;points=[];portConstraint=eastwest;fontColor=none;" parent="14pyiHDCrdK1a7-ECYkf-35" vertex="1">
                    <mxGeometry y="52" width="210" height="8" as="geometry"/>
                </mxCell>
                <mxCell id="14pyiHDCrdK1a7-ECYkf-53" value="+ setName(name): CardComponent" style="text;strokeColor=#b85450;fillColor=#f8cecc;align=left;verticalAlign=top;spacingLeft=4;spacingRight=4;overflow=hidden;rotatable=0;points=[[0,0.5],[1,0.5]];portConstraint=eastwest;" parent="14pyiHDCrdK1a7-ECYkf-35" vertex="1">
                    <mxGeometry y="60" width="210" height="26" as="geometry"/>
                </mxCell>
                <mxCell id="14pyiHDCrdK1a7-ECYkf-39" value="ButtonComponent" style="swimlane;fontStyle=1;childLayout=stackLayout;horizontal=1;startSize=26;fillColor=none;horizontalStack=0;resizeParent=1;resizeParentMax=0;resizeLast=0;collapsible=1;marginBottom=0;fontColor=none;" parent="A4yf_fh0j4ve3ehSTuui-1" vertex="1">
                    <mxGeometry x="100" y="770" width="140" height="104" as="geometry"/>
                </mxCell>
                <mxCell id="14pyiHDCrdK1a7-ECYkf-40" value="- text: string" style="text;strokeColor=none;fillColor=none;align=left;verticalAlign=top;spacingLeft=4;spacingRight=4;overflow=hidden;rotatable=0;points=[[0,0.5],[1,0.5]];portConstraint=eastwest;" parent="14pyiHDCrdK1a7-ECYkf-39" vertex="1">
                    <mxGeometry y="26" width="140" height="26" as="geometry"/>
                </mxCell>
                <mxCell id="14pyiHDCrdK1a7-ECYkf-41" value="- href: string" style="text;strokeColor=none;fillColor=none;align=left;verticalAlign=top;spacingLeft=4;spacingRight=4;overflow=hidden;rotatable=0;points=[[0,0.5],[1,0.5]];portConstraint=eastwest;" parent="14pyiHDCrdK1a7-ECYkf-39" vertex="1">
                    <mxGeometry y="52" width="140" height="26" as="geometry"/>
                </mxCell>
                <mxCell id="14pyiHDCrdK1a7-ECYkf-42" value="- trigger: boolean" style="text;strokeColor=none;fillColor=none;align=left;verticalAlign=top;spacingLeft=4;spacingRight=4;overflow=hidden;rotatable=0;points=[[0,0.5],[1,0.5]];portConstraint=eastwest;" parent="14pyiHDCrdK1a7-ECYkf-39" vertex="1">
                    <mxGeometry y="78" width="140" height="26" as="geometry"/>
                </mxCell>
                <mxCell id="14pyiHDCrdK1a7-ECYkf-43" value="TextComponent" style="swimlane;fontStyle=1;childLayout=stackLayout;horizontal=1;startSize=26;fillColor=none;horizontalStack=0;resizeParent=1;resizeParentMax=0;resizeLast=0;collapsible=1;marginBottom=0;fontColor=none;" parent="A4yf_fh0j4ve3ehSTuui-1" vertex="1">
                    <mxGeometry x="-50" y="770" width="140" height="78" as="geometry"/>
                </mxCell>
                <mxCell id="14pyiHDCrdK1a7-ECYkf-44" value="- text: string" style="text;strokeColor=none;fillColor=none;align=left;verticalAlign=top;spacingLeft=4;spacingRight=4;overflow=hidden;rotatable=0;points=[[0,0.5],[1,0.5]];portConstraint=eastwest;" parent="14pyiHDCrdK1a7-ECYkf-43" vertex="1">
                    <mxGeometry y="26" width="140" height="26" as="geometry"/>
                </mxCell>
                <mxCell id="14pyiHDCrdK1a7-ECYkf-45" value="- href: string" style="text;strokeColor=none;fillColor=none;align=left;verticalAlign=top;spacingLeft=4;spacingRight=4;overflow=hidden;rotatable=0;points=[[0,0.5],[1,0.5]];portConstraint=eastwest;" parent="14pyiHDCrdK1a7-ECYkf-43" vertex="1">
                    <mxGeometry y="52" width="140" height="26" as="geometry"/>
                </mxCell>
                <mxCell id="14pyiHDCrdK1a7-ECYkf-47" value="InputTextComponent" style="swimlane;fontStyle=1;childLayout=stackLayout;horizontal=1;startSize=26;fillColor=none;horizontalStack=0;resizeParent=1;resizeParentMax=0;resizeLast=0;collapsible=1;marginBottom=0;fontColor=none;" parent="A4yf_fh0j4ve3ehSTuui-1" vertex="1">
                    <mxGeometry x="-200" y="770" width="140" height="78" as="geometry"/>
                </mxCell>
                <mxCell id="14pyiHDCrdK1a7-ECYkf-48" value="- typeInfo: string" style="text;strokeColor=none;fillColor=none;align=left;verticalAlign=top;spacingLeft=4;spacingRight=4;overflow=hidden;rotatable=0;points=[[0,0.5],[1,0.5]];portConstraint=eastwest;" parent="14pyiHDCrdK1a7-ECYkf-47" vertex="1">
                    <mxGeometry y="26" width="140" height="26" as="geometry"/>
                </mxCell>
                <mxCell id="14pyiHDCrdK1a7-ECYkf-49" value="- description: string" style="text;strokeColor=none;fillColor=none;align=left;verticalAlign=top;spacingLeft=4;spacingRight=4;overflow=hidden;rotatable=0;points=[[0,0.5],[1,0.5]];portConstraint=eastwest;" parent="14pyiHDCrdK1a7-ECYkf-47" vertex="1">
                    <mxGeometry y="52" width="140" height="26" as="geometry"/>
                </mxCell>
                <mxCell id="14pyiHDCrdK1a7-ECYkf-51" value="" style="endArrow=diamondThin;endFill=1;endSize=24;html=1;entryX=1;entryY=0.5;entryDx=0;entryDy=0;exitX=1;exitY=0.5;exitDx=0;exitDy=0;" parent="A4yf_fh0j4ve3ehSTuui-1" source="14pyiHDCrdK1a7-ECYkf-27" target="14pyiHDCrdK1a7-ECYkf-1" edge="1">
                    <mxGeometry width="160" relative="1" as="geometry">
                        <mxPoint x="700" y="809" as="sourcePoint"/>
                        <mxPoint x="620" y="715" as="targetPoint"/>
                        <Array as="points">
                            <mxPoint x="800" y="785"/>
                            <mxPoint x="800" y="530"/>
                            <mxPoint x="800" y="500"/>
                            <mxPoint x="800" y="373"/>
                        </Array>
                    </mxGeometry>
                </mxCell>
                <mxCell id="14pyiHDCrdK1a7-ECYkf-56" value="" style="group;fontStyle=0" parent="A4yf_fh0j4ve3ehSTuui-1" vertex="1" connectable="0">
                    <mxGeometry x="540" y="880" width="510" height="120" as="geometry"/>
                </mxCell>
                <mxCell id="14pyiHDCrdK1a7-ECYkf-54" value="Note" style="shape=umlFrame;whiteSpace=wrap;html=1;fontColor=none;" parent="14pyiHDCrdK1a7-ECYkf-56" vertex="1">
                    <mxGeometry width="510" height="120" as="geometry"/>
                </mxCell>
                <mxCell id="14pyiHDCrdK1a7-ECYkf-55" value="setName(name : string): CardComponent {&#10;       let uiComponentBuilder = UIComponenFactory.uicomponentBuilders.get(this.id);&#10;       return uiComponentBuilder.setName(name)&#10;                   .build();&#10;}" style="text;align=left;fontStyle=1;verticalAlign=middle;spacingLeft=3;spacingRight=3;strokeColor=none;rotatable=0;points=[[0,0.5],[1,0.5]];portConstraint=eastwest;fontColor=none;" parent="14pyiHDCrdK1a7-ECYkf-56" vertex="1">
                    <mxGeometry x="10" y="54" width="250" height="26" as="geometry"/>
                </mxCell>
                <mxCell id="14pyiHDCrdK1a7-ECYkf-57" value="" style="endArrow=none;dashed=1;html=1;dashPattern=1 3;strokeWidth=2;fontColor=none;exitX=1;exitY=0.5;exitDx=0;exitDy=0;entryX=0.354;entryY=0;entryDx=0;entryDy=0;entryPerimeter=0;" parent="A4yf_fh0j4ve3ehSTuui-1" source="14pyiHDCrdK1a7-ECYkf-53" target="14pyiHDCrdK1a7-ECYkf-54" edge="1">
                    <mxGeometry width="50" height="50" relative="1" as="geometry">
                        <mxPoint x="710" y="820" as="sourcePoint"/>
                        <mxPoint x="760" y="770" as="targetPoint"/>
                    </mxGeometry>
                </mxCell>
                <mxCell id="14pyiHDCrdK1a7-ECYkf-62" value="Extends" style="endArrow=block;endSize=16;endFill=0;html=1;exitX=0.448;exitY=0.019;exitDx=0;exitDy=0;exitPerimeter=0;noLabel=1;fontColor=none;entryX=0.5;entryY=1;entryDx=0;entryDy=0;" parent="A4yf_fh0j4ve3ehSTuui-1" source="14pyiHDCrdK1a7-ECYkf-43" target="14pyiHDCrdK1a7-ECYkf-15" edge="1">
                    <mxGeometry width="160" relative="1" as="geometry">
                        <mxPoint x="50" y="700" as="sourcePoint"/>
                        <mxPoint x="91" y="692" as="targetPoint"/>
                        <Array as="points">
                            <mxPoint x="13" y="740"/>
                            <mxPoint x="95" y="740"/>
                        </Array>
                    </mxGeometry>
                </mxCell>
                <mxCell id="14pyiHDCrdK1a7-ECYkf-63" value="Extends" style="endArrow=block;endSize=16;endFill=0;html=1;exitX=0.5;exitY=0;exitDx=0;exitDy=0;noLabel=1;fontColor=none;entryX=0.506;entryY=0.999;entryDx=0;entryDy=0;entryPerimeter=0;" parent="A4yf_fh0j4ve3ehSTuui-1" source="14pyiHDCrdK1a7-ECYkf-39" target="14pyiHDCrdK1a7-ECYkf-16" edge="1">
                    <mxGeometry width="160" relative="1" as="geometry">
                        <mxPoint x="22.720000000000027" y="781.482" as="sourcePoint"/>
                        <mxPoint x="90" y="690" as="targetPoint"/>
                        <Array as="points">
                            <mxPoint x="170" y="740"/>
                            <mxPoint x="96" y="740"/>
                            <mxPoint x="96" y="710"/>
                        </Array>
                    </mxGeometry>
                </mxCell>
                <mxCell id="14pyiHDCrdK1a7-ECYkf-64" value="Extends" style="endArrow=block;endSize=16;endFill=0;html=1;exitX=0.5;exitY=0;exitDx=0;exitDy=0;noLabel=1;fontColor=none;entryX=0.501;entryY=0.993;entryDx=0;entryDy=0;entryPerimeter=0;" parent="A4yf_fh0j4ve3ehSTuui-1" source="14pyiHDCrdK1a7-ECYkf-47" target="14pyiHDCrdK1a7-ECYkf-16" edge="1">
                    <mxGeometry width="160" relative="1" as="geometry">
                        <mxPoint x="180" y="780.0000000000001" as="sourcePoint"/>
                        <mxPoint x="106.25999999999999" y="699.976" as="targetPoint"/>
                        <Array as="points">
                            <mxPoint x="-130" y="740"/>
                            <mxPoint x="95" y="740"/>
                            <mxPoint x="95" y="720"/>
                        </Array>
                    </mxGeometry>
                </mxCell>
                <mxCell id="14pyiHDCrdK1a7-ECYkf-65" value="Extends" style="endArrow=block;endSize=16;endFill=0;html=1;exitX=0.5;exitY=0;exitDx=0;exitDy=0;noLabel=1;fontColor=none;entryX=0.525;entryY=1.009;entryDx=0;entryDy=0;entryPerimeter=0;" parent="A4yf_fh0j4ve3ehSTuui-1" source="14pyiHDCrdK1a7-ECYkf-27" target="14pyiHDCrdK1a7-ECYkf-13" edge="1">
                    <mxGeometry width="160" relative="1" as="geometry">
                        <mxPoint x="180" y="780" as="sourcePoint"/>
                        <mxPoint x="106.25999999999976" y="699.9760000000001" as="targetPoint"/>
                        <Array as="points">
                            <mxPoint x="710" y="750"/>
                            <mxPoint x="482" y="750"/>
                        </Array>
                    </mxGeometry>
                </mxCell>
                <mxCell id="14pyiHDCrdK1a7-ECYkf-67" value="Extends" style="endArrow=block;endSize=16;endFill=0;html=1;exitX=0.5;exitY=0;exitDx=0;exitDy=0;noLabel=1;fontColor=none;entryX=0.526;entryY=1;entryDx=0;entryDy=0;entryPerimeter=0;" parent="A4yf_fh0j4ve3ehSTuui-1" source="14pyiHDCrdK1a7-ECYkf-35" target="14pyiHDCrdK1a7-ECYkf-13" edge="1">
                    <mxGeometry width="160" relative="1" as="geometry">
                        <mxPoint x="720" y="780" as="sourcePoint"/>
                        <mxPoint x="480" y="720" as="targetPoint"/>
                        <Array as="points">
                            <mxPoint x="515" y="750"/>
                            <mxPoint x="482" y="750"/>
                        </Array>
                    </mxGeometry>
                </mxCell>
                <mxCell id="14pyiHDCrdK1a7-ECYkf-68" value="Extends" style="endArrow=block;endSize=16;endFill=0;html=1;exitX=0.5;exitY=0;exitDx=0;exitDy=0;noLabel=1;fontColor=none;entryX=0.526;entryY=1;entryDx=0;entryDy=0;entryPerimeter=0;" parent="A4yf_fh0j4ve3ehSTuui-1" source="14pyiHDCrdK1a7-ECYkf-31" target="14pyiHDCrdK1a7-ECYkf-13" edge="1">
                    <mxGeometry width="160" relative="1" as="geometry">
                        <mxPoint x="720" y="780.0000000000001" as="sourcePoint"/>
                        <mxPoint x="480" y="720" as="targetPoint"/>
                        <Array as="points">
                            <mxPoint x="330" y="750"/>
                            <mxPoint x="482" y="750"/>
                        </Array>
                    </mxGeometry>
                </mxCell>
            </root>
        </mxGraphModel>
    </diagram>
</mxfile>